<?xml version="1.0" standalone="no"?><!DOCTYPE svg PUBLIC "-//W3C//DTD SVG 1.1//EN" "http://www.w3.org/Graphics/SVG/1.1/DTD/svg11.dtd"><svg class="icon" height="512" viewBox="0 0 1024 1024" version="1.1" xmlns="http://www.w3.org/2000/svg"><path d="M512 64C264.6 64 64 264.6 64 512s200.6 448 448 448 448-200.6 448-448S759.4 64 512 64z m-35.8 113.6c0-19.8 16-35.8 35.8-35.8s35.8 16 35.8 35.8v287.7c0 19.8-16 35.8-35.8 35.8s-35.8-16-35.8-35.8V177.6z m232.5 532c-52.6 51.1-122.4 79.2-196.7 79.2-74.2 0-144.1-28.1-196.7-79.2-52.9-51.3-82-119.7-82-192.4 0-44.2 11.1-88.1 32.2-126.9 20.3-37.5 49.9-70.2 85.4-94.8 16.3-11.3 38.6-7.2 49.9 9.1 11.3 16.3 7.2 38.6-9.1 49.9-26.3 18.2-48.2 42.4-63.2 70-15.6 28.8-23.6 60-23.6 92.7 0 110.3 92.8 200 207 200s207-89.7 207-200c0-32.8-7.9-63.9-23.5-92.7-15-27.6-36.8-51.8-63.1-70-16.3-11.3-20.4-33.6-9.1-49.9 11.3-16.3 33.6-20.4 49.9-9.1 35.5 24.6 65 57.3 85.4 94.8 21.1 38.8 32.2 82.7 32.2 126.9-0.1 72.7-29.2 141-82 192.4z" fill="#FF6666" /></svg>