<?xml version="1.0" encoding="UTF-8" standalone="no"?>
<!-- Created with Inkscape (http://www.inkscape.org/) -->

<svg
   xmlns:dc="http://purl.org/dc/elements/1.1/"
   xmlns:cc="http://creativecommons.org/ns#"
   xmlns:rdf="http://www.w3.org/1999/02/22-rdf-syntax-ns#"
   xmlns:svg="http://www.w3.org/2000/svg"
   xmlns="http://www.w3.org/2000/svg"
   xmlns:sodipodi="http://sodipodi.sourceforge.net/DTD/sodipodi-0.dtd"
   xmlns:inkscape="http://www.inkscape.org/namespaces/inkscape"
   width="127mm"
   height="127mm"
   viewBox="0 0 127 127"
   version="1.1"
   id="svg125"
   inkscape:version="0.92.3 (2405546, 2018-03-11)"
   sodipodi:docname="take-entrance.svg">
  <defs
     id="defs119" />
  <sodipodi:namedview
     id="base"
     pagecolor="#ffffff"
     bordercolor="#666666"
     borderopacity="1.0"
     inkscape:pageopacity="0.0"
     inkscape:pageshadow="2"
     inkscape:zoom="0.75"
     inkscape:cx="-254.20663"
     inkscape:cy="239.2703"
     inkscape:document-units="mm"
     inkscape:current-layer="layer1-0"
     showgrid="false"
     inkscape:window-width="1366"
     inkscape:window-height="664"
     inkscape:window-x="-8"
     inkscape:window-y="401"
     inkscape:window-maximized="1" />
  <metadata
     id="metadata122">
    <rdf:RDF>
      <cc:Work
         rdf:about="">
        <dc:format>image/svg+xml</dc:format>
        <dc:type
           rdf:resource="http://purl.org/dc/dcmitype/StillImage" />
        <dc:title />
      </cc:Work>
    </rdf:RDF>
  </metadata>
  <g
     inkscape:label="Capa 1"
     inkscape:groupmode="layer"
     id="layer1"
     transform="translate(0,-170)">
    <g
       transform="translate(0.13574203,-17.012829)"
       id="layer1-0"
       inkscape:label="Capa 1">
      <g
         id="g34"
         transform="matrix(0.36881587,0,0,0.36881587,-49.477003,152.85998)">
        <g
           id="g32">
          <path
             inkscape:connector-curvature="0"
             d="M 472,304 H 320 c -27.408,0 -31.328,22.888 -31.896,40 h -58.776 c -16.197,-0.003 -29.33,13.125 -29.333,29.323 -0.003,14.705 10.885,27.139 25.461,29.077 l 101.488,13.528 c 0.35,0.048 0.703,0.072 1.056,0.072 0.741,0 1.479,-0.102 2.192,-0.304 L 385.128,400 H 472 c 4.418,0 8,-3.582 8,-8 v -80 c 0,-4.418 -3.582,-8 -8,-8 z m -96,81.968 -48.592,13.88 -99.848,-13.312 c -7.295,-0.985 -12.409,-7.698 -11.424,-14.992 0.892,-6.605 6.527,-11.536 13.192,-11.544 H 336 v -16 h -31.84 c 0.848,-20.104 5.312,-24 15.84,-24 h 56 z M 408,384 h -16 v -64 h 16 z m 56,0 h -40 v -64 h 40 z"
             id="path10" />
        </g>
      </g>
      <g
         id="g49"
         transform="matrix(0.26458333,0,0,0.26458333,-280.37448,188.13069)">
        <g
           id="g47" />
      </g>
      <g
         id="g81"
         transform="matrix(0.26458333,0,0,0.26458333,-280.37448,188.13069)" />
      <g
         id="g83"
         transform="matrix(0.26458333,0,0,0.26458333,-280.37448,188.13069)" />
      <g
         id="g85"
         transform="matrix(0.26458333,0,0,0.26458333,-280.37448,188.13069)" />
      <g
         id="g87"
         transform="matrix(0.26458333,0,0,0.26458333,-280.37448,188.13069)" />
      <g
         id="g89"
         transform="matrix(0.26458333,0,0,0.26458333,-280.37448,188.13069)" />
      <g
         id="g91"
         transform="matrix(0.26458333,0,0,0.26458333,-280.37448,188.13069)" />
      <g
         id="g93"
         transform="matrix(0.26458333,0,0,0.26458333,-280.37448,188.13069)" />
      <g
         id="g95"
         transform="matrix(0.26458333,0,0,0.26458333,-280.37448,188.13069)" />
      <g
         id="g97"
         transform="matrix(0.26458333,0,0,0.26458333,-280.37448,188.13069)" />
      <g
         id="g99"
         transform="matrix(0.26458333,0,0,0.26458333,-280.37448,188.13069)" />
      <g
         id="g101"
         transform="matrix(0.26458333,0,0,0.26458333,-280.37448,188.13069)" />
      <g
         id="g103"
         transform="matrix(0.26458333,0,0,0.26458333,-280.37448,188.13069)" />
      <g
         id="g105"
         transform="matrix(0.26458333,0,0,0.26458333,-280.37448,188.13069)" />
      <g
         id="g107"
         transform="matrix(0.26458333,0,0,0.26458333,-280.37448,188.13069)" />
      <g
         id="g109"
         transform="matrix(0.26458333,0,0,0.26458333,-280.37448,188.13069)" />
      <g
         id="g462"
         transform="matrix(0.82845118,0,0,0.88095238,174.71095,30.745204)">
        <g
           transform="matrix(0.26458333,0,0,0.26458333,-211.31106,129.77831)"
           id="g274">
          <path
             sodipodi:nodetypes="sssccssssssssssssssccccccccccccccccccccccccc"
             inkscape:connector-curvature="0"
             d="m 472,307.999 c 4.418,0 8,-3.582 8,-8 v -64 c 0,-4.418 -3.582,-8 -8,-8 -464,0 0,0 -464,0 -4.418,0 -8,3.582 -8,8 v 64 c 0,4.418 3.582,8 8,8 17.673,0 32,14.327 32,32 0,17.673 -14.327,32 -32,32 -4.418,0 -8,3.582 -8,8 v 64 c 0,4.418 3.582,8 8,8 h 464 c 4.418,0 8,-3.582 8,-8 v -64 c 0,-4.418 -3.582,-8 -8,-8 -17.673,0 -32,-14.327 -32,-32 0,-17.673 14.327,-32 32,-32 z m -372.688,-80 c 465.8873,312.21363 232.94365,156.10682 0,0 z M 424.62,347.955 c 3.392,20.178 19.202,35.988 39.38,39.38 v 48.664 h -64 v -32 h -16 v 32 H 96 v -8 H 80 v 8 H 16 V 387.335 C 42.143,382.941 59.774,358.186 55.38,332.043 51.988,311.865 36.179,296.055 16,292.663 v -48.664 h 64 v 24 h 16 v -24 h 368 v 48.664 c -26.143,4.394 -43.774,29.15 -39.38,55.292 z"
             id="path272" />
        </g>
        <g
           transform="matrix(0.26458333,0,0,0.26458333,-211.31106,129.77831)"
           id="g282">
          <g
             id="g280">
            <rect
               id="rect278"
               height="32"
               width="16"
               y="259.99899"
               x="384" />
          </g>
        </g>
        <g
           transform="matrix(0.26458333,0,0,0.26458333,-211.31106,129.77831)"
           id="g288">
          <g
             id="g286">
            <rect
               id="rect284"
               height="32"
               width="16"
               y="307.99899"
               x="384" />
          </g>
        </g>
        <g
           transform="matrix(0.26458333,0,0,0.26458333,-211.31106,129.77831)"
           id="g294">
          <g
             id="g292">
            <rect
               id="rect290"
               height="32"
               width="16"
               y="355.99899"
               x="384" />
          </g>
        </g>
        <g
           transform="matrix(0.26458333,0,0,0.26458333,-211.31106,129.77831)"
           id="g300">
          <g
             id="g298">
            <rect
               id="rect296"
               height="32"
               width="16"
               y="283.99899"
               x="80" />
          </g>
        </g>
        <g
           transform="matrix(0.26458333,0,0,0.26458333,-211.31106,129.77831)"
           id="g306">
          <g
             id="g304">
            <rect
               id="rect302"
               height="32"
               width="16"
               y="331.99899"
               x="80" />
          </g>
        </g>
        <g
           transform="matrix(0.26458333,0,0,0.26458333,-211.31106,129.77831)"
           id="g312">
          <g
             id="g310">
            <rect
               id="rect308"
               height="32"
               width="16"
               y="379.99899"
               x="80" />
          </g>
        </g>
        <g
           transform="matrix(0.26458333,0,0,0.26458333,-211.31106,129.77831)"
           id="g318">
          <g
             id="g316">
            <path
               id="path314"
               d="m 352,283.999 c -8.837,0 -16,-7.163 -16,-16 0,-4.418 -3.582,-8 -8,-8 H 152 c -4.418,0 -8,3.582 -8,8 0,8.837 -7.163,16 -16,16 -4.418,0 -8,3.582 -8,8 v 96 c 0,4.418 3.582,8 8,8 8.837,0 16,7.163 16,16 0,4.418 3.582,8 8,8 h 176 c 4.418,0 8,-3.582 8,-8 0,-8.837 7.163,-16 16,-16 4.418,0 8,-3.582 8,-8 v -96 c 0,-4.418 -3.582,-8 -8,-8 z m -8,97.008 c -11.263,2.934 -20.058,11.729 -22.992,22.992 H 158.992 C 156.058,392.736 147.263,383.941 136,381.007 v -82.016 c 11.263,-2.934 20.058,-11.729 22.992,-22.992 h 162.016 c 2.934,11.263 11.729,20.058 22.992,22.992 z"
               inkscape:connector-curvature="0" />
          </g>
        </g>
      </g>
      <g
         id="g320"
         transform="matrix(0.26458333,0,0,0.26458333,-211.31106,129.77831)" />
      <g
         id="g322"
         transform="matrix(0.26458333,0,0,0.26458333,-211.31106,129.77831)" />
      <g
         id="g324"
         transform="matrix(0.26458333,0,0,0.26458333,-211.31106,129.77831)" />
      <g
         id="g326"
         transform="matrix(0.26458333,0,0,0.26458333,-211.31106,129.77831)" />
      <g
         id="g328"
         transform="matrix(0.26458333,0,0,0.26458333,-211.31106,129.77831)" />
      <g
         id="g330"
         transform="matrix(0.26458333,0,0,0.26458333,-211.31106,129.77831)" />
      <g
         id="g332"
         transform="matrix(0.26458333,0,0,0.26458333,-211.31106,129.77831)" />
      <g
         id="g334"
         transform="matrix(0.26458333,0,0,0.26458333,-211.31106,129.77831)" />
      <g
         id="g336"
         transform="matrix(0.26458333,0,0,0.26458333,-211.31106,129.77831)" />
      <g
         id="g338"
         transform="matrix(0.26458333,0,0,0.26458333,-211.31106,129.77831)" />
      <g
         id="g340"
         transform="matrix(0.26458333,0,0,0.26458333,-211.31106,129.77831)" />
      <g
         id="g342"
         transform="matrix(0.26458333,0,0,0.26458333,-211.31106,129.77831)" />
      <g
         id="g344"
         transform="matrix(0.26458333,0,0,0.26458333,-211.31106,129.77831)" />
      <g
         id="g346"
         transform="matrix(0.26458333,0,0,0.26458333,-211.31106,129.77831)" />
      <g
         id="g348"
         transform="matrix(0.26458333,0,0,0.26458333,-211.31106,129.77831)" />
    </g>
  </g>
</svg>
