<?xml version="1.0" encoding="UTF-8" standalone="no"?>
<!-- Created with Inkscape (http://www.inkscape.org/) -->

<svg
   xmlns:dc="http://purl.org/dc/elements/1.1/"
   xmlns:cc="http://creativecommons.org/ns#"
   xmlns:rdf="http://www.w3.org/1999/02/22-rdf-syntax-ns#"
   xmlns:svg="http://www.w3.org/2000/svg"
   xmlns="http://www.w3.org/2000/svg"
   xmlns:sodipodi="http://sodipodi.sourceforge.net/DTD/sodipodi-0.dtd"
   xmlns:inkscape="http://www.inkscape.org/namespaces/inkscape"
   width="127mm"
   height="127mm"
   viewBox="0 0 127 127"
   version="1.1"
   id="svg125"
   inkscape:version="0.92.3 (2405546, 2018-03-11)"
   sodipodi:docname="take-money.svg">
  <defs
     id="defs119">
	

	
</defs>
  <sodipodi:namedview
     id="base"
     pagecolor="#ffffff"
     bordercolor="#666666"
     borderopacity="1.0"
     inkscape:pageopacity="0.0"
     inkscape:pageshadow="2"
     inkscape:zoom="0.75"
     inkscape:cx="-254.20663"
     inkscape:cy="239.2703"
     inkscape:document-units="mm"
     inkscape:current-layer="layer1-0"
     showgrid="false"
     inkscape:window-width="1366"
     inkscape:window-height="664"
     inkscape:window-x="-8"
     inkscape:window-y="401"
     inkscape:window-maximized="1" />
  <metadata
     id="metadata122">
    <rdf:RDF>
      <cc:Work
         rdf:about="">
        <dc:format>image/svg+xml</dc:format>
        <dc:type
           rdf:resource="http://purl.org/dc/dcmitype/StillImage" />
        <dc:title></dc:title>
      </cc:Work>
    </rdf:RDF>
  </metadata>
  <g
     inkscape:label="Capa 1"
     inkscape:groupmode="layer"
     id="layer1"
     transform="translate(0,-170)">
    <g
       transform="translate(0.13574203,-17.012829)"
       id="layer1-0"
       inkscape:label="Capa 1">
      <g
         id="g34"
         transform="matrix(0.36881587,0,0,0.36881587,-49.477003,152.85998)">
        <g
           id="g32">
          <path
             inkscape:connector-curvature="0"
             d="M 472,304 H 320 c -27.408,0 -31.328,22.888 -31.896,40 h -58.776 c -16.197,-0.003 -29.33,13.125 -29.333,29.323 -0.003,14.705 10.885,27.139 25.461,29.077 l 101.488,13.528 c 0.35,0.048 0.703,0.072 1.056,0.072 0.741,0 1.479,-0.102 2.192,-0.304 L 385.128,400 H 472 c 4.418,0 8,-3.582 8,-8 v -80 c 0,-4.418 -3.582,-8 -8,-8 z m -96,81.968 -48.592,13.88 -99.848,-13.312 c -7.295,-0.985 -12.409,-7.698 -11.424,-14.992 0.892,-6.605 6.527,-11.536 13.192,-11.544 H 336 v -16 h -31.84 c 0.848,-20.104 5.312,-24 15.84,-24 h 56 z M 408,384 h -16 v -64 h 16 z m 56,0 h -40 v -64 h 40 z"
             id="path10" />
        </g>
      </g>
      <g
         id="g49"
         transform="matrix(0.26458333,0,0,0.26458333,-280.37448,188.13069)">
	<g
   id="g47">
		
	</g>

</g>
      <g
         id="g81"
         transform="matrix(0.26458333,0,0,0.26458333,-280.37448,188.13069)">
</g>
      <g
         id="g83"
         transform="matrix(0.26458333,0,0,0.26458333,-280.37448,188.13069)">
</g>
      <g
         id="g85"
         transform="matrix(0.26458333,0,0,0.26458333,-280.37448,188.13069)">
</g>
      <g
         id="g87"
         transform="matrix(0.26458333,0,0,0.26458333,-280.37448,188.13069)">
</g>
      <g
         id="g89"
         transform="matrix(0.26458333,0,0,0.26458333,-280.37448,188.13069)">
</g>
      <g
         id="g91"
         transform="matrix(0.26458333,0,0,0.26458333,-280.37448,188.13069)">
</g>
      <g
         id="g93"
         transform="matrix(0.26458333,0,0,0.26458333,-280.37448,188.13069)">
</g>
      <g
         id="g95"
         transform="matrix(0.26458333,0,0,0.26458333,-280.37448,188.13069)">
</g>
      <g
         id="g97"
         transform="matrix(0.26458333,0,0,0.26458333,-280.37448,188.13069)">
</g>
      <g
         id="g99"
         transform="matrix(0.26458333,0,0,0.26458333,-280.37448,188.13069)">
</g>
      <g
         id="g101"
         transform="matrix(0.26458333,0,0,0.26458333,-280.37448,188.13069)">
</g>
      <g
         id="g103"
         transform="matrix(0.26458333,0,0,0.26458333,-280.37448,188.13069)">
</g>
      <g
         id="g105"
         transform="matrix(0.26458333,0,0,0.26458333,-280.37448,188.13069)">
</g>
      <g
         id="g107"
         transform="matrix(0.26458333,0,0,0.26458333,-280.37448,188.13069)">
</g>
      <g
         id="g109"
         transform="matrix(0.26458333,0,0,0.26458333,-280.37448,188.13069)">
</g>
      <g
         id="g320"
         transform="matrix(0.26458333,0,0,0.26458333,-211.31106,129.77831)">
</g>
      <g
         id="g322"
         transform="matrix(0.26458333,0,0,0.26458333,-211.31106,129.77831)">
</g>
      <g
         id="g324"
         transform="matrix(0.26458333,0,0,0.26458333,-211.31106,129.77831)">
</g>
      <g
         id="g326"
         transform="matrix(0.26458333,0,0,0.26458333,-211.31106,129.77831)">
</g>
      <g
         id="g328"
         transform="matrix(0.26458333,0,0,0.26458333,-211.31106,129.77831)">
</g>
      <g
         id="g330"
         transform="matrix(0.26458333,0,0,0.26458333,-211.31106,129.77831)">
</g>
      <g
         id="g332"
         transform="matrix(0.26458333,0,0,0.26458333,-211.31106,129.77831)">
</g>
      <g
         id="g334"
         transform="matrix(0.26458333,0,0,0.26458333,-211.31106,129.77831)">
</g>
      <g
         id="g336"
         transform="matrix(0.26458333,0,0,0.26458333,-211.31106,129.77831)">
</g>
      <g
         id="g338"
         transform="matrix(0.26458333,0,0,0.26458333,-211.31106,129.77831)">
</g>
      <g
         id="g340"
         transform="matrix(0.26458333,0,0,0.26458333,-211.31106,129.77831)">
</g>
      <g
         id="g342"
         transform="matrix(0.26458333,0,0,0.26458333,-211.31106,129.77831)">
</g>
      <g
         id="g344"
         transform="matrix(0.26458333,0,0,0.26458333,-211.31106,129.77831)">
</g>
      <g
         id="g346"
         transform="matrix(0.26458333,0,0,0.26458333,-211.31106,129.77831)">
</g>
      <g
         id="g348"
         transform="matrix(0.26458333,0,0,0.26458333,-211.31106,129.77831)">
</g>
      <g
         id="g552"
         transform="matrix(0.34475417,0,0,0.34475417,-45.768839,138.09048)">
        <g
           id="g468">
	<g
   id="g466">
		
	</g>

</g>
        <g
           id="g474">
	<g
   id="g472">
		<path
   id="path470"
   d="m 294.58,317.216 c -11.528,7.283 -24.869,11.132 -38.58,11.132 -27.852,0 -52.063,-15.83 -64.149,-38.957 h 41.888 c 6.146,0 11.13,-4.983 11.13,-11.13 0,-6.147 -4.984,-11.13 -11.13,-11.13 H 184.51 c -0.563,-3.63 -0.858,-7.346 -0.858,-11.13 0,-3.784 0.295,-7.501 0.858,-11.13 h 49.229 c 6.146,0 11.13,-4.983 11.13,-11.13 0,-6.147 -4.984,-11.13 -11.13,-11.13 h -41.888 c 12.087,-23.127 36.297,-38.957 64.149,-38.957 13.713,0 27.056,3.85 38.584,11.135 5.199,3.286 12.072,1.733 15.356,-3.464 3.283,-5.197 1.733,-12.071 -3.464,-15.354 -15.093,-9.537 -32.548,-14.578 -50.475,-14.578 -40.416,0 -74.977,25.482 -88.505,61.217 h -22.8 c -6.146,0 -11.13,4.983 -11.13,11.13 0,6.147 4.984,11.13 11.13,11.13 h 17.372 c -0.431,3.654 -0.677,7.363 -0.677,11.13 0,3.768 0.246,7.476 0.677,11.13 h -17.372 c -6.146,0 -11.13,4.983 -11.13,11.13 0,6.147 4.984,11.13 11.13,11.13 h 22.8 c 13.528,35.735 48.089,61.217 88.505,61.217 17.926,0 35.378,-5.039 50.47,-14.573 5.197,-3.284 6.748,-10.158 3.465,-15.354 -3.282,-5.195 -10.157,-6.747 -15.356,-3.464 z"
   inkscape:connector-curvature="0" />

	</g>

</g>
        <g
           id="g480">
	<g
   id="g478">
		
	</g>

</g>
        <g
           id="g486">
	<g
   id="g484">
		
	</g>

</g>
        <g
           id="g488">
</g>
        <g
           id="g490">
</g>
        <g
           id="g492">
</g>
        <g
           id="g494">
</g>
        <g
           id="g496">
</g>
        <g
           id="g498">
</g>
        <g
           id="g500">
</g>
        <g
           id="g502">
</g>
        <g
           id="g504">
</g>
        <g
           id="g506">
</g>
        <g
           id="g508">
</g>
        <g
           id="g510">
</g>
        <g
           id="g512">
</g>
        <g
           id="g514">
</g>
        <g
           id="g516">
</g>
      </g>
    </g>
  </g>
</svg>
